<svg viewBox="0 0 135 157" fill="currentColor" xmlns="http://www.w3.org/2000/svg">  <path d="M-5.12993e-06 39.2814L-1.71705e-06 117.359L67.4086 156.641L134.818 117.359L134.818 39.2814L67.4086 -3.34641e-05L-5.12993e-06 39.2814ZM96.9911 61.5893L96.9911 95.5362L67.8938 112.51L38.7964 95.5362L38.7964 61.5893L67.8938 44.6159L96.9911 61.5893Z" fill="#F4F2F8" stroke="#F4F2F8"></path>  <path d="M-5.12993e-06 39.2814L-1.71705e-06 117.359L67.4086 156.641L134.818 117.359L134.818 39.2814L67.4086 -3.34641e-05L-5.12993e-06 39.2814ZM96.9911 61.5893L96.9911 95.5362L67.8938 112.51L38.7964 95.5362L38.7964 61.5893L67.8938 44.6159L96.9911 61.5893Z" fill="#F4F2F8" stroke="#F4F2F8"></path></svg>
