<svg viewBox="0 0 110 128" fill="currentColor" xmlns="http://www.w3.org/2000/svg">  <path d="M44.0829 69.2855V57.8037L54.999 51.6677L65.9151 57.8037V69.2855L54.999 75.4215L44.0829 69.2855Z" stroke="#F4F2F8" stroke-width="0.814212" fill="#F4F2F8"></path>  <path d="M44.0829 69.2855V57.8037L54.999 51.6677L65.9151 57.8037V69.2855L54.999 75.4215L44.0829 69.2855Z" stroke="#F4F2F8" stroke-width="0.814212" fill="#F4F2F8"></path>  <path d="M32.2675 51.1852L54.8461 37.9922L77.7308 51.1867V76.8549L54.8461 89.8138L32.2675 76.8564V51.1852Z" stroke="#F4F2F8" stroke-width="0.814212" fill="#F4F2F8"></path>  <path d="M32.2675 51.1852L54.8461 37.9922L77.7308 51.1867V76.8549L54.8461 89.8138L32.2675 76.8564V51.1852Z" stroke="#F4F2F8" stroke-width="0.814212" fill="#F4F2F8"></path>  <path d="M21.7235 45.0007L54.9986 26.2646L88.2736 45.0007V81.9833L54.9986 100.564L21.7235 81.9833L21.7235 45.0007Z" stroke="#F4F2F8" stroke-width="0.814212" fill="#F4F2F8"></path>  <path d="M21.7235 45.0007L54.9986 26.2646L88.2736 45.0007V81.9833L54.9986 100.564L21.7235 81.9833L21.7235 45.0007Z" stroke="#F4F2F8" stroke-width="0.814212" fill="#F4F2F8"></path>  <path d="M32.3525 51.1738L22.0139 45.2343" stroke="#F4F2F8" stroke-width="0.814212" fill="#F4F2F8"></path>  <path d="M32.3525 51.1738L22.0139 45.2343" stroke="#F4F2F8" stroke-width="0.814212" fill="#F4F2F8"></path>  <path d="M77.5986 51.2012L88.2264 45.0956" stroke="#F4F2F8" stroke-width="0.814212" fill="#F4F2F8"></path>  <path d="M77.5986 51.2012L88.2264 45.0956" stroke="#F4F2F8" stroke-width="0.814212" fill="#F4F2F8"></path>  <path d="M54.999 89.5684L54.999 100.233" stroke="#F4F2F8" stroke-width="0.814212" fill="#F4F2F8"></path>  <path d="M54.999 89.5684L54.999 100.233" stroke="#F4F2F8" stroke-width="0.814212" fill="#F4F2F8"></path>  <path d="M54.999 113.243L54.999 126.433" stroke="#F4F2F8" stroke-width="0.814212" fill="#F4F2F8"></path>  <path d="M54.999 113.243L54.999 126.433" stroke="#F4F2F8" stroke-width="0.814212" fill="#F4F2F8"></path>  <path d="M98.3242 39.2944L109.647 32.7893" stroke="#F4F2F8" stroke-width="0.814212" fill="#F4F2F8"></path>  <path d="M98.3242 39.2944L109.647 32.7893" stroke="#F4F2F8" stroke-width="0.814212" fill="#F4F2F8"></path>  <path d="M11.6768 39.2949L0.353531 32.7898" stroke="#F4F2F8" stroke-width="0.814212" fill="#F4F2F8"></path>  <path d="M11.6768 39.2949L0.353531 32.7898" stroke="#F4F2F8" stroke-width="0.814212" fill="#F4F2F8"></path>  <path d="M11.4918 39.2247L54.9994 14.5408L98.507 39.2247V88.5803L54.9994 113.264L11.4918 88.5803V39.2247Z" stroke="#F4F2F8" stroke-width="0.814212" fill="#F4F2F8"></path>  <path d="M11.4918 39.2247L54.9994 14.5408L98.507 39.2247V88.5803L54.9994 113.264L11.4918 88.5803V39.2247Z" stroke="#F4F2F8" stroke-width="0.814212" fill="#F4F2F8"></path>  <path d="M0.407112 32.6673L55 0.864701L109.593 32.6673V95.4213L55 126.941L0.407106 95.4213L0.407112 32.6673Z" stroke="#F4F2F8" stroke-width="0.814212" fill="#F4F2F8"></path>  <path d="M0.407112 32.6673L55 0.864701L109.593 32.6673V95.4213L55 126.941L0.407106 95.4213L0.407112 32.6673Z" stroke="#F4F2F8" stroke-width="0.814212" fill="#F4F2F8"></path></svg>
