<svg viewBox="0 0 93 88" fill="currentColor" xmlns="http://www.w3.org/2000/svg">  <path d="M92.6646 74.8291L18.3447 74.8291L18.3447 0.509254L92.6646 0.509251L92.6646 74.8291ZM23.3621 69.9685L87.804 69.9685L87.804 5.52662L23.3621 5.52662L23.3621 69.9685Z" fill="#F4F2F8" stroke="#F4F2F8"></path>  <path d="M74.3199 88L0 88L-3.24862e-06 13.6801L74.3199 13.6801L74.3199 88ZM5.01739 83.1394L69.4593 83.1394L69.4593 18.6975L5.01739 18.6975L5.01739 83.1394Z" fill="#F4F2F8" stroke="#F4F2F8"></path>  <path d="M74.3199 88L0 88L-3.24862e-06 13.6801L74.3199 13.6801L74.3199 88ZM5.01739 83.1394L69.4593 83.1394L69.4593 18.6975L5.01739 18.6975L5.01739 83.1394Z" fill="#F4F2F8" stroke="#F4F2F8"></path></svg>
