<svg viewBox="0 0 103 109" fill="currentColor" xmlns="http://www.w3.org/2000/svg">  <path d="M15.001 64.6484C15.001 40.5391 34.6456 20.8945 58.7548 20.8945C82.8641 20.8945 102.509 40.5391 102.509 64.6484C102.509 88.7576 82.8641 108.402 58.7548 108.402C34.6456 108.402 15.001 88.7576 15.001 64.6484ZM96.9724 64.6484C96.9724 43.5751 79.8281 26.4307 58.7548 26.4307C37.6815 26.4307 20.5372 43.5751 20.5372 64.6484C20.5372 85.7216 37.6815 102.866 58.7548 102.866C79.8281 102.866 96.9724 85.7216 96.9724 64.6484Z" fill="#F4F2F8" stroke="#F4F2F8"></path>  <path d="M0 43.7538C0 19.6446 19.6446 0 43.7538 0C67.8631 0 87.5077 19.6446 87.5077 43.7538C87.5077 67.8631 67.8631 87.5077 43.7538 87.5077C19.6446 87.5077 0 67.8631 0 43.7538ZM81.9714 43.7538C81.9714 22.6806 64.8271 5.53621 43.7538 5.53621C22.6806 5.53621 5.53621 22.6806 5.53621 43.7538C5.53621 64.8271 22.6806 81.9714 43.7538 81.9714C64.8271 81.9714 81.9714 64.8271 81.9714 43.7538Z" fill="#F4F2F8" stroke="#F4F2F8"></path>  <path d="M0 43.7538C0 19.6446 19.6446 0 43.7538 0C67.8631 0 87.5077 19.6446 87.5077 43.7538C87.5077 67.8631 67.8631 87.5077 43.7538 87.5077C19.6446 87.5077 0 67.8631 0 43.7538ZM81.9714 43.7538C81.9714 22.6806 64.8271 5.53621 43.7538 5.53621C22.6806 5.53621 5.53621 22.6806 5.53621 43.7538C5.53621 64.8271 22.6806 81.9714 43.7538 81.9714C64.8271 81.9714 81.9714 64.8271 81.9714 43.7538Z" fill="#F4F2F8" stroke="#F4F2F8"></path></svg>
