<svg viewBox="0 0 54 54" fill="currentColor" xmlns="http://www.w3.org/2000/svg">  <path d="M36.5 53.5C27.1 53.5 19.5 45.9 19.5 36.5C19.5 27.1 27.1 19.5 36.5 19.5C45.9 19.5 53.5 27.1 53.5 36.5C53.5 45.9 45.9 53.5 36.5 53.5ZM36.5 27.5C31.5 27.5 27.5 31.5 27.5 36.5C27.5 41.5 31.5 45.5 36.5 45.5C41.5 45.5 45.5 41.5 45.5 36.5C45.5 31.5 41.5 27.5 36.5 27.5Z" fill="#F4F2F8" stroke="#F4F2F8"></path>  <path d="M36.5 53.5C27.1 53.5 19.5 45.9 19.5 36.5C19.5 27.1 27.1 19.5 36.5 19.5C45.9 19.5 53.5 27.1 53.5 36.5C53.5 45.9 45.9 53.5 36.5 53.5ZM36.5 27.5C31.5 27.5 27.5 31.5 27.5 36.5C27.5 41.5 31.5 45.5 36.5 45.5C41.5 45.5 45.5 41.5 45.5 36.5C45.5 31.5 41.5 27.5 36.5 27.5Z" fill="#F4F2F8" stroke="#F4F2F8"></path>  <path d="M18 35C8.6 35 1 27.4 1 18C1 8.6 8.6 1 18 1C27.4 1 35 8.6 35 18C35 27.4 27.4 35 18 35ZM18 9C13 9 9 13 9 18C9 23 13 27 18 27C23 27 27 23 27 18C27 13 23 9 18 9Z" stroke="#F4F2F8" stroke-width="2" stroke-miterlimit="10" fill="#F4F2F8"></path></svg>
